<svg xmlns="http://www.w3.org/2000/svg" viewBox="0 0 200 200"><defs><linearGradient id="bgGradient" x1="0%" x2="100%" y1="0%" y2="100%"><stop offset="0%" style="stop-color:#0a0a0f"/><stop offset="50%" style="stop-color:#111118"/><stop offset="100%" style="stop-color:#0f0f16"/></linearGradient><linearGradient id="gorillaGradient" x1="0%" x2="0%" y1="0%" y2="100%"><stop offset="0%" style="stop-color:#22c55e"/><stop offset="100%" style="stop-color:#15803d"/></linearGradient><linearGradient id="glowGradient" x1="0%" x2="100%" y1="0%" y2="100%"><stop offset="0%" style="stop-color:#22c55e;stop-opacity:.3"/><stop offset="100%" style="stop-color:#22c55e;stop-opacity:0"/></linearGradient><filter id="glow" width="200%" height="200%" x="-50%" y="-50%"><feGaussianBlur result="coloredBlur" stdDeviation="3"/><feMerge><feMergeNode in="coloredBlur"/><feMergeNode in="SourceGraphic"/></feMerge></filter></defs><circle cx="100" cy="100" r="98" fill="url(#bgGradient)"/><circle cx="100" cy="100" r="95" fill="none" stroke="#22c55e" stroke-width="2" opacity=".3"/><ellipse cx="100" cy="110" fill="url(#glowGradient)" rx="55" ry="50"/><path fill="url(#gorillaGradient)" d="M100 45 C65 45 48 75 48 105 C48 135 60 150 75 158 L75 170 L88 170 L88 158 C93 160 97 161 100 161 C103 161 107 160 112 158 L112 170 L125 170 L125 158 C140 150 152 135 152 105 C152 75 135 45 100 45" filter="url(#glow)"/><ellipse cx="100" cy="72" fill="#16a34a" rx="35" ry="12"/><ellipse cx="75" cy="82" fill="#0a0a0f" rx="18" ry="16"/><ellipse cx="125" cy="82" fill="#0a0a0f" rx="18" ry="16"/><ellipse cx="75" cy="82" fill="#fff" rx="10" ry="11"/><ellipse cx="125" cy="82" fill="#fff" rx="10" ry="11"/><circle cx="78" cy="81" r="5" fill="#0a0a0f"/><circle cx="128" cy="81" r="5" fill="#0a0a0f"/><circle cx="80" cy="79" r="2" fill="#fff"/><circle cx="130" cy="79" r="2" fill="#fff"/><ellipse cx="100" cy="115" fill="#15803d" rx="28" ry="22"/><ellipse cx="90" cy="110" fill="#0a0a0f" rx="6" ry="5"/><ellipse cx="110" cy="110" fill="#0a0a0f" rx="6" ry="5"/><path fill="none" stroke="#0a0a0f" stroke-linecap="round" stroke-width="3" d="M85 125 Q100 135 115 125"/><g filter="url(#glow)" opacity=".7"><circle cx="140" cy="55" r="10" fill="#22c55e" opacity=".4"/><circle cx="155" cy="42" r="8" fill="#22c55e" opacity=".3"/><circle cx="165" cy="28" r="6" fill="#22c55e" opacity=".2"/><circle cx="148" cy="65" r="6" fill="#22c55e" opacity=".3"/><circle cx="160" cy="52" r="5" fill="#22c55e" opacity=".2"/></g><rect width="8" height="25" x="135" y="90" fill="#1a1a2e" stroke="#22c55e" stroke-width="1" rx="3"/><rect width="6" height="4" x="136" y="92" fill="#22c55e" opacity=".5" rx="1"/></svg>